<svg xmlns="http://www.w3.org/2000/svg" viewBox="0 0 64 64" width="64" height="64">
  <rect width="64" height="64" fill="#f3ede2"></rect>
  <!-- "S" in Fraunces Medium Italic (opsz 46), outlined — sibling of the
       nicholaskmitchell.com "N." monogram and the "Smylte." wordmark -->
  <path d="M22.94 44.49Q21.07 44.49 19.84 44.14Q18.61 43.79 17.85 43.32Q17.09 42.86 16.66 42.51Q16.23 42.16 15.95 42.16Q15.69 42.16 15.37 42.48Q15.05 42.8 14.68 43.23Q14.3 43.66 13.93 43.99Q13.55 44.32 13.19 44.32Q12.61 44.32 12.33 44.01Q12.05 43.7 12.12 43.04L12.99 35.62Q13.06 34.91 13.38 34.56Q13.7 34.21 14.19 34.21Q14.67 34.21 14.98 34.54Q15.29 34.87 15.52 35.51L15.89 37.49Q16.23 39.93 17.88 41.2Q19.53 42.48 21.85 42.48Q23.35 42.48 24.48 41.94Q25.62 41.41 26.31 40.43Q27.01 39.46 27.2 38.17Q27.55 36.29 26.58 34.68Q25.62 33.07 22.77 31.27Q19.55 29.21 18.18 27.11Q16.81 25.01 17.15 22.18Q17.43 19.87 18.8 17.89Q20.17 15.91 22.65 14.67Q25.12 13.44 28.62 13.44Q31.62 13.44 33.66 14.41Q35.71 15.37 36.75 16.88Q37.79 18.39 37.75 20.06Q37.7 21.16 37.14 21.88Q36.57 22.61 35.58 22.61Q34.75 22.61 34.23 22.14Q33.72 21.67 33.37 20.66L32.99 19.14Q32.47 17.19 31.26 16.24Q30.05 15.28 28.27 15.28Q26.54 15.28 25.25 15.95Q23.97 16.61 23.21 17.73Q22.45 18.84 22.27 20.21Q22 22.23 23.05 23.89Q24.1 25.55 26.86 27.43Q29.37 29.11 30.72 30.58Q32.07 32.06 32.53 33.57Q32.99 35.09 32.77 36.84Q32.56 39.14 31.25 40.85Q29.95 42.56 27.8 43.53Q25.66 44.49 22.94 44.49Z" fill="#1a1814"></path>
  <circle cx="45.6" cy="44" r="4.5" fill="#c75a26"></circle>
</svg>
