<svg xmlns="http://www.w3.org/2000/svg" viewBox="0 0 64 64" width="64" height="64">
  <rect width="64" height="64" fill="#f3ede2"></rect>
  <!-- "S" in Fraunces Medium Italic (opsz 46), outlined — sibling of the
       nicholaskmitchell.com "N." monogram and the "Smylte." wordmark -->
  <path d="M26.03 46.43Q24.04 46.43 22.73 46.06 21.42 45.68 20.61 45.18 19.8 44.69 19.34 44.32 18.89 43.95 18.59 43.95 18.31 43.95 17.97 44.29 17.63 44.63 17.24 45.09 16.83 45.55 16.44 45.9 16.03 46.25 15.65 46.25 15.03 46.25 14.73 45.92 14.44 45.59 14.51 44.89L15.44 36.99Q15.51 36.23 15.85 35.86 16.19 35.49 16.71 35.49 17.22 35.49 17.55 35.84 17.88 36.19 18.13 36.87L18.52 38.98Q18.89 41.58 20.64 42.93 22.4 44.29 24.87 44.29 26.46 44.29 27.67 43.71 28.88 43.15 29.61 42.11 30.36 41.08 30.56 39.7 30.93 37.7 29.9 35.99 28.88 34.27 25.85 32.36 22.42 30.17 20.96 27.93 19.5 25.69 19.86 22.68 20.16 20.22 21.62 18.12 23.08 16.01 25.72 14.69 28.35 13.38 32.07 13.38 35.27 13.38 37.44 14.41 39.62 15.43 40.73 17.04 41.83 18.65 41.79 20.43 41.74 21.6 41.14 22.36 40.54 23.14 39.48 23.14 38.6 23.14 38.04 22.64 37.5 22.14 37.13 21.06L36.72 19.45Q36.17 17.37 34.88 16.36 33.6 15.34 31.7 15.34 29.86 15.34 28.49 16.05 27.12 16.75 26.31 17.95 25.51 19.13 25.31 20.59 25.03 22.74 26.14 24.5 27.26 26.27 30.2 28.27 32.87 30.06 34.31 31.62 35.75 33.2 36.23 34.81 36.72 36.42 36.49 38.29 36.27 40.73 34.87 42.55 33.49 44.37 31.2 45.41 28.92 46.43 26.03 46.43Z" fill="#1a1814"></path>
  <circle cx="45" cy="44" r="4.5" fill="#c75a26"></circle>
</svg>
