<svg xmlns="http://www.w3.org/2000/svg" viewBox="0 0 64 64" width="64" height="64">
  <rect width="64" height="64" fill="#f3ede2"></rect>
  <!-- "R" in Fraunces Medium Italic (opsz 46), outlined — sibling of the
       nicholaskmitchell.com "N." monogram -->
  <path d="M19.14 32.11 20.5 30.77Q21.49 31.37 22.77 31.72Q24.04 32.06 25.56 32.06Q28.11 32.06 30 31.05Q31.88 30.04 33.09 28.16Q34.3 26.29 34.76 23.74Q35.27 20.95 34.62 19.12Q33.98 17.3 32.48 16.38Q30.99 15.46 28.92 15.46Q27.24 15.46 26.5 16.01Q25.77 16.56 25.42 17.66Q25.19 18.52 24.78 20.06Q24.36 21.6 23.83 23.58Q23.31 25.55 22.71 27.77Q22.11 29.99 21.52 32.2Q20.94 34.41 20.42 36.4Q19.9 38.39 19.52 39.94Q19.14 41.49 18.96 42.34Q18.77 43.08 18.99 43.41Q19.21 43.75 19.63 43.88L21.05 44.18Q21.44 44.32 21.66 44.53Q21.88 44.73 21.88 45.06Q21.88 45.49 21.56 45.75Q21.24 46 20.62 46H10.22Q9.62 46 9.4 45.77Q9.18 45.54 9.18 45.17Q9.18 44.78 9.46 44.53Q9.74 44.27 10.2 44.18L11.51 43.93Q12.15 43.81 12.53 43.46Q12.91 43.1 13.16 42.37Q13.37 41.58 13.8 40.05Q14.22 38.52 14.76 36.52Q15.3 34.52 15.91 32.27Q16.52 30.02 17.12 27.76Q17.72 25.51 18.25 23.48Q18.77 21.46 19.15 19.92Q19.53 18.38 19.7 17.55Q19.86 16.77 19.75 16.4Q19.65 16.03 19 15.87L17.6 15.57Q17.16 15.46 16.98 15.25Q16.8 15.04 16.8 14.74Q16.8 14.31 17.13 14.05Q17.46 13.8 18.06 13.8H29.7Q33.45 13.8 36.07 15.09Q38.69 16.38 39.85 18.76Q41.02 21.14 40.35 24.4Q39.82 27.16 37.92 29.24Q36.02 31.33 33 32.5Q29.98 33.67 26.11 33.72Q23.79 33.74 22.11 33.29Q20.43 32.84 19.14 32.11ZM25.86 33.35 31.22 32.48 33.56 39.97Q33.89 41.08 34.22 41.71Q34.55 42.34 34.93 42.6Q35.31 42.85 35.75 42.85Q36.23 42.85 36.63 42.6Q37.04 42.34 37.41 41.86Q37.57 41.7 37.82 41.62Q38.07 41.54 38.28 41.63Q38.6 41.72 38.69 42.06Q38.78 42.39 38.58 42.8Q37.84 44.51 36.24 45.54Q34.64 46.58 32.64 46.58Q31.59 46.58 30.79 46.17Q30 45.77 29.4 44.83Q28.8 43.88 28.34 42.25Z" fill="#1a1814"></path>
  <circle cx="45.6" cy="44" r="4.5" fill="#c75a26"></circle>
</svg>
